<?xml version="1.0" standalone="no"?>
<!DOCTYPE svg PUBLIC "-//W3C//DTD SVG 20010904//EN" "http://www.w3.org/TR/2001/REC-SVG-20010904/DTD/svg10.dtd">
<svg xmlns="http://www.w3.org/2000/svg" version="1.0" width="2000.000000pt" height="1500.000000pt" viewBox="0 0 2000.000000 1500.000000" preserveAspectRatio="xMidYMid meet" style="background-color:transparent;">
  <g transform="translate(0.000000,1500.000000) scale(0.100000,-0.100000)" fill="#000000" stroke="none">
    <path d="M0 7500 l0 -7500 10000 0 10000 0 0 7500 0 7500 -10000 0 -10000 0 0 -7500z m10685 4875 c388 -37 734 -115 1038 -235 856 -336 1436 -959 1727 -1855 37 -115 110 -400 110 -432 0 -13 -9 -15 -550 -128 -228 -47 -507 -105 -620 -129 l-205 -43 -6 36 c-4 20 -15 92 -24 161 -35 253 -127 554 -231 750 -263 495 -699 790 -1312 889 -688 112 -1470 -22 -1927 -331 -419 -282 -605 -631 -605 -1136 0 -296 50 -481 185 -688 198 -304 596 -531 1237 -708 90 -25 420 -104 733 -176 1062 -245 1246 -296 1606 -440 200 -81 488 -221 614 -301 471 -295 825 -718 985 -1174 164 -470 195 -1128 79 -1673 -161 -756 -614 -1343 -1314 -1704 -420 -216 -883 -341 -1460 -395 -340 -31 -867 -22 -1220 23 -1688 211 -2800 1240 -3125 2893 -16 80 -27 147 -25 149 2 2 315 68 697 146 473 98 695 140 699 132 4 -6 9 -65 13 -132 19 -362 118 -764 259 -1056 115 -241 225 -397 401 -574 348 -348 775 -538 1367 -610 193 -24 608 -24 798 0 577 71 1029 283 1323 620 277 316 408 695 408 1174 -1 470 -118 795 -375 1040 -226 216 -586 402 -1000 516 -71 19 -425 101 -785 181 -832 186 -1048 240 -1440 363 -360 113 -739 302 -1009 505 -189 141 -407 385 -544 607 -131 212 -212 447 -263 756 -22 134 -31 583 -14 741 58 571 246 981 619 1352 372 368 830 610 1456 765 312 78 554 113 965 140 115 8 582 -4 735 -19z"/>
  </g>
</svg>
