<?xml version="1.0" standalone="no"?>
<!DOCTYPE svg PUBLIC "-//W3C//DTD SVG 20010904//EN" "http://www.w3.org/TR/2001/REC-SVG-20010904/DTD/svg10.dtd">
<svg xmlns="http://www.w3.org/2000/svg" version="1.0" width="2000.000000pt" height="1500.000000pt" viewBox="0 0 2000.000000 1500.000000" preserveAspectRatio="xMidYMid meet" style="background-color:transparent;">
  <g transform="translate(0.000000,1500.000000) scale(0.100000,-0.100000)" fill="#000000" stroke="none">
    <path d="M9950 12394 c-411 -27 -653 -62 -965 -140 -626 -155 -1084 -397 -1456 -765 -373 -371 -561 -781 -619 -1352 -17 -158 -8 -607 14 -741 51 -309 132 -544 263 -756 137 -222 355 -466 544 -607 270 -203 649 -392 1009 -505 392 -123 608 -177 1440 -363 884 -196 1016 -234 1305 -375 344 -167 586 -380 708 -625 97 -194 146 -443 147 -737 1 -737 -329 -1280 -961 -1582 -337 -161 -680 -229 -1164 -229 -482 -1 -829 64 -1187 223 -352 157 -663 429 -870 763 -208 333 -350 816 -374 1271 -4 67 -9 126 -13 132 -4 8 -226 -34 -699 -132 -382 -78 -695 -144 -697 -146 -6 -6 50 -284 84 -414 345 -1323 1223 -2202 2527 -2528 396 -99 758 -140 1254 -139 354 0 565 14 844 58 1158 182 1969 762 2319 1660 233 598 248 1465 37 2070 -160 456 -514 879 -985 1174 -126 80 -414 220 -614 301 -360 144 -544 195 -1606 440 -313 72 -643 151 -733 176 -641 177 -1039 404 -1237 708 -135 207 -185 392 -185 688 0 505 186 854 605 1136 457 309 1239 443 1927 331 613 -99 1049 -394 1312 -889 104 -196 196 -497 231 -750 9 -69 20 -141 24 -161 l6 -36 205 43 c113 24 392 82 620 129 541 113 550 115 550 128 0 32 -73 317 -110 432 -216 666 -587 1175 -1115 1534 -463 314 -995 494 -1650 556 -153 15 -620 27 -735 19z"/>
  </g>
</svg>
